<?xml version="1.0" encoding="utf-8"?>
<!-- Generator: Adobe Illustrator 25.2.0, SVG Export Plug-In . SVG Version: 6.00 Build 0)  -->
<svg version="1.1" id="Layer_1" xmlns="http://www.w3.org/2000/svg" xmlns:xlink="http://www.w3.org/1999/xlink" x="0px" y="0px"
	 viewBox="0 0 909.6 140.4" style="enable-background:new 0 0 909.6 140.4;" xml:space="preserve">
<style type="text/css">
	.st0{fill:url(#SVGID_1_);}
</style>
<linearGradient id="SVGID_1_" gradientUnits="userSpaceOnUse" x1="0" y1="64.1719" x2="909.5787" y2="64.1719">
	<stop  offset="1.502404e-03" style="stop-color:#DA8CFF"/>
	<stop  offset="1" style="stop-color:#9A55FF"/>
</linearGradient>
<path class="st0" d="M74.5,62h25.8v42.8c-12,8.6-28.3,13.1-43.4,13.1c-32.9,0-57-22.3-57-53.7s24.1-53.7,57.6-53.7
	c19.3,0,35,6.6,45.2,18.9L84.1,46.2C77,38.3,68.9,34.7,59,34.7c-17.7,0-29.5,11.7-29.5,29.5c0,17.4,11.8,29.5,29.2,29.5
	c5.5,0,10.6-1,15.8-3.4V62z M192.6,71.4v44.4h-26.1v-10.3c-4,7.7-12,11.7-23.6,11.7c-19.2,0-29.8-10.8-29.8-24.6
	c0-14.8,10.8-23.9,35.6-23.9h15.9c-0.4-8.1-5.9-12.7-17-12.7c-7.7,0-16.2,2.7-21.7,6.9l-9.4-19c9.2-6.1,22.7-9.3,35.3-9.3
	C177.7,34.5,192.6,46,192.6,71.4z M164.6,90.1v-6.9h-12.1c-9,0-12.3,3.2-12.3,8.1c0,4.7,3.8,8.1,10.5,8.1
	C156.9,99.4,162.3,96.5,164.6,90.1z M346.8,70.1v45.8h-28V74.7c0-11.5-4.7-16.4-12.1-16.4c-8.1,0-14,5.5-14,17.9v39.7h-28V74.7
	c0-11.5-4.6-16.4-12.1-16.4c-8.3,0-14.2,5.5-14.2,17.9v39.7h-28v-80H237v8.4c6.1-6.5,14.5-9.7,23.9-9.7c10.9,0,20.2,4,25.8,12.5
	c6.3-8,16.2-12.5,27.7-12.5C333.1,34.5,346.8,45.3,346.8,70.1z M447,82.9h-58.2c2.4,8.1,9.3,12.8,19.6,12.8c7.8,0,13-2.2,18.4-6.9
	l14.8,15.4c-7.7,8.6-18.9,13-34.1,13c-28.5,0-46.9-17.6-46.9-41.5c0-24.1,18.7-41.2,44-41.2c23.6,0,42.8,15.1,42.8,41.5
	C447.5,78,447.2,80.7,447,82.9z M388.4,68.2h32.8c-1.5-8.4-7.7-13.7-16.4-13.7S390.1,59.7,388.4,68.2z M514,34.5v25.2
	c-2.5-0.3-4.3-0.4-6.3-0.4c-11.4,0-19.2,5.8-19.2,19.8v36.8h-28v-80h26.7v9.6C492.9,38.2,502.2,34.5,514,34.5z M614.6,92.7v23.2H522
	V97.5l52.1-61.8h-50.8V12.5h89v18.3l-52.1,61.8H614.6z M620.6,75.7c0-24.1,19-41.2,45.2-41.2c26.4,0,45.2,17.1,45.2,41.2
	c0,24.2-18.7,41.5-45.2,41.5C639.6,117.2,620.6,99.9,620.6,75.7z M682.6,75.7c0-12.1-7.2-18.9-16.8-18.9c-9.4,0-16.8,6.8-16.8,18.9
	c0,12.3,7.4,19.2,16.8,19.2C675.4,94.9,682.6,87.9,682.6,75.7z M809.1,70.1v45.8h-28V74.7c0-11.5-5-16.4-13.1-16.4
	c-9,0-15.9,5.6-15.9,18.9v38.7h-28v-80h26.7v8.7c6.3-6.6,15.4-10,25.4-10C794.8,34.5,809.1,45.3,809.1,70.1z M909.1,82.9H851
	c2.4,8.1,9.3,12.8,19.6,12.8c7.8,0,13-2.2,18.4-6.9l14.8,15.4c-7.7,8.6-18.9,13-34.1,13c-28.5,0-46.9-17.6-46.9-41.5
	c0-24.1,18.7-41.2,44-41.2c23.6,0,42.8,15.1,42.8,41.5C909.6,78,909.3,80.7,909.1,82.9z M850.5,68.2h32.8
	c-1.5-8.4-7.7-13.7-16.4-13.7C858.2,54.4,852.2,59.7,850.5,68.2z"/>
</svg>
