<?xml version="1.0" encoding="utf-8"?>
<!-- Generator: Adobe Illustrator 25.2.0, SVG Export Plug-In . SVG Version: 6.00 Build 0)  -->
<svg version="1.1" id="Layer_1" xmlns="http://www.w3.org/2000/svg" xmlns:xlink="http://www.w3.org/1999/xlink" x="0px" y="0px"
	 viewBox="0 0 207.1 129.6" style="enable-background:new 0 0 207.1 129.6;" xml:space="preserve">
<style type="text/css">
	.st0{fill:url(#SVGID_1_);}
	.st1{fill:url(#SVGID_2_);}
</style>
<g>
	<linearGradient id="SVGID_1_" gradientUnits="userSpaceOnUse" x1="0.5" y1="64.9214" x2="103.3663" y2="64.9214">
		<stop  offset="1.502404e-03" style="stop-color:#DA8CFF"/>
		<stop  offset="1" style="stop-color:#9A55FF"/>
	</linearGradient>
	<path class="st0" d="M75.1,62.7H101v42.9c-12,8.6-28.4,13.2-43.5,13.2c-33,0-57-22.3-57-53.8c0-31.5,24.1-53.8,57.6-53.8
		c19.4,0,35,6.7,45.2,18.9L84.7,46.9c-7.1-7.8-15.2-11.5-25.1-11.5c-17.7,0-29.6,11.7-29.6,29.6c0,17.4,11.8,29.6,29.3,29.6
		c5.5,0,10.6-1,15.8-3.4V62.7z"/>
	<linearGradient id="SVGID_2_" gradientUnits="userSpaceOnUse" x1="114.4491" y1="64.9218" x2="207.117" y2="64.9218">
		<stop  offset="1.502404e-03" style="stop-color:#DA8CFF"/>
		<stop  offset="1" style="stop-color:#9A55FF"/>
	</linearGradient>
	<path class="st1" d="M207.1,93.4v23.2h-92.7V98.3l52.2-61.9h-50.8V13.2h89.1v18.3l-52.2,61.9H207.1z"/>
</g>
</svg>
